<svg version="1.1" id="Layer_3" xmlns="http://www.w3.org/2000/svg" x="0" y="0" viewBox="0 0 64 64" style="enable-background:new 0 0 64 64" xml:space="preserve">
<style>.st1{fill:#63312d}.st2{fill:#f9a287}.st3{fill:#fcb7a4}.st4{fill:#db785a}.st7{fill:#efc36a}.st8{fill:#f9dd9d}.st16{fill:#ffe8bb}</style>
<circle class="st2" cx="9.531" cy="20.508" r="6.333"/>
<path class="st3" d="M4.417 21.758a6.333 6.333 0 0 1 6.333-6.333c1.462 0 2.804.5 3.875 1.332a6.319 6.319 0 0 0-5.094-2.582 6.333 6.333 0 0 0-6.333 6.333c0 2.036.965 3.843 2.458 5.002a6.3 6.3 0 0 1-1.239-3.752z"/>
<path class="st1" d="M9.532 27.342a6.84 6.84 0 0 1-6.833-6.834 6.84 6.84 0 0 1 6.833-6.833 6.84 6.84 0 0 1 6.833 6.833c0 3.768-3.066 6.834-6.833 6.834zm0-12.667c-3.217 0-5.833 2.616-5.833 5.833s2.617 5.834 5.833 5.834 5.833-2.617 5.833-5.834-2.617-5.833-5.833-5.833z"/>
<path class="st4" d="M12.484 14.175H9.532a6.333 6.333 0 0 1 0 12.666h2.952a6.333 6.333 0 0 0 0-12.666z"/>
<path class="st1" d="M12.483 27.342H9.532a.5.5 0 0 1 0-1c3.216 0 5.833-2.617 5.833-5.834s-2.617-5.833-5.833-5.833a.5.5 0 0 1 0-1h2.952a6.84 6.84 0 0 1 6.833 6.833 6.842 6.842 0 0 1-6.834 6.834zm.665-12.629a6.832 6.832 0 0 1 3.216 5.795 6.836 6.836 0 0 1-3.217 5.796 5.842 5.842 0 0 0 5.169-5.796 5.84 5.84 0 0 0-5.168-5.795z"/><circle class="st2" cx="9.531" cy="43.492" r="6.333"/>
<path class="st3" d="M4.417 44.742a6.333 6.333 0 0 1 6.333-6.333c1.462 0 2.804.5 3.875 1.332a6.319 6.319 0 0 0-5.094-2.582 6.333 6.333 0 0 0-6.333 6.333c0 2.036.965 3.843 2.458 5.002a6.3 6.3 0 0 1-1.239-3.752z"/>
<path class="st1" d="M9.532 50.325a6.84 6.84 0 0 1-6.833-6.833 6.84 6.84 0 0 1 6.833-6.834 6.84 6.84 0 0 1 6.833 6.834 6.841 6.841 0 0 1-6.833 6.833zm0-12.667c-3.217 0-5.833 2.617-5.833 5.834s2.617 5.833 5.833 5.833 5.833-2.616 5.833-5.833-2.617-5.834-5.833-5.834z"/><path class="st4" d="M12.484 37.159H9.532a6.333 6.333 0 0 1 0 12.666h2.952a6.333 6.333 0 0 0 0-12.666z"/><path class="st1" d="M12.483 50.325H9.532a.5.5 0 0 1 0-1c3.216 0 5.833-2.616 5.833-5.833s-2.617-5.834-5.833-5.834a.5.5 0 0 1 0-1h2.952a6.84 6.84 0 0 1 6.833 6.834 6.841 6.841 0 0 1-6.834 6.833zm.665-12.629a6.835 6.835 0 0 1 3.217 5.796 6.834 6.834 0 0 1-3.216 5.795 5.841 5.841 0 0 0 5.168-5.795 5.842 5.842 0 0 0-5.169-5.796z"/><circle cx="51.516" cy="32" r="6.333" style="fill:#84dbff"/><path d="M46.402 33.25a6.333 6.333 0 0 1 6.333-6.333c1.462 0 2.804.5 3.875 1.332a6.319 6.319 0 0 0-5.094-2.582A6.333 6.333 0 0 0 45.183 32c0 2.036.965 3.843 2.458 5.002a6.3 6.3 0 0 1-1.239-3.752z" style="fill:#a9ebff"/><path class="st1" d="M51.516 38.833c-3.768 0-6.833-3.065-6.833-6.833s3.065-6.833 6.833-6.833c3.768 0 6.833 3.065 6.833 6.833s-3.065 6.833-6.833 6.833zm0-12.666c-3.216 0-5.833 2.616-5.833 5.833s2.617 5.833 5.833 5.833c3.217 0 5.833-2.616 5.833-5.833s-2.616-5.833-5.833-5.833z"/><path d="M54.468 25.667h-2.952a6.333 6.333 0 0 1 0 12.666h2.952a6.333 6.333 0 0 0 0-12.666z" style="fill:#52badb"/><path class="st1" d="M54.468 38.833h-2.952a.5.5 0 0 1 0-1c3.217 0 5.833-2.616 5.833-5.833s-2.617-5.833-5.833-5.833a.5.5 0 0 1 0-1h2.952c3.768 0 6.833 3.065 6.833 6.833s-3.065 6.833-6.833 6.833zm.665-12.628c1.93 1.208 3.217 3.355 3.217 5.795s-1.286 4.587-3.217 5.795c2.905-.33 5.169-2.804 5.169-5.795s-2.264-5.465-5.169-5.795z"/><circle class="st8" cx="29.954" cy="32" r="6.333"/><path class="st16" d="M24.84 33.25a6.333 6.333 0 0 1 6.333-6.333c1.462 0 2.804.5 3.875 1.332a6.319 6.319 0 0 0-5.094-2.582A6.333 6.333 0 0 0 23.621 32c0 2.036.965 3.843 2.458 5.002a6.3 6.3 0 0 1-1.239-3.752z"/><path class="st1" d="M29.954 38.833c-3.768 0-6.833-3.065-6.833-6.833s3.065-6.833 6.833-6.833c3.768 0 6.833 3.065 6.833 6.833s-3.065 6.833-6.833 6.833zm0-12.666c-3.216 0-5.833 2.616-5.833 5.833s2.617 5.833 5.833 5.833c3.217 0 5.833-2.616 5.833-5.833s-2.616-5.833-5.833-5.833z"/><path class="st7" d="M32.906 25.667h-2.952a6.333 6.333 0 0 1 0 12.666h2.952a6.333 6.333 0 0 0 0-12.666z"/><path class="st1" d="M32.906 38.833h-2.952a.5.5 0 0 1 0-1c3.217 0 5.833-2.616 5.833-5.833s-2.617-5.833-5.833-5.833a.5.5 0 0 1 0-1h2.952c3.768 0 6.833 3.065 6.833 6.833s-3.065 6.833-6.833 6.833zm.665-12.628c1.931 1.208 3.217 3.354 3.217 5.795s-1.286 4.587-3.217 5.795c2.905-.33 5.169-2.804 5.169-5.795s-2.264-5.465-5.169-5.795z"/><circle class="st8" cx="29.954" cy="9.417" r="6.333"/><path class="st16" d="M24.84 10.667a6.333 6.333 0 0 1 6.333-6.333c1.462 0 2.804.5 3.875 1.332a6.319 6.319 0 0 0-5.094-2.582 6.333 6.333 0 0 0-6.333 6.333c0 2.036.965 3.843 2.458 5.002a6.302 6.302 0 0 1-1.239-3.752z"/><path class="st1" d="M29.954 16.25a6.84 6.84 0 0 1-6.833-6.833 6.84 6.84 0 0 1 6.833-6.834 6.84 6.84 0 0 1 6.833 6.834c.001 3.768-3.065 6.833-6.833 6.833zm0-12.667c-3.216 0-5.833 2.617-5.833 5.834s2.617 5.833 5.833 5.833c3.217 0 5.833-2.616 5.833-5.833s-2.616-5.834-5.833-5.834z"/><path class="st7" d="M32.906 3.083h-2.952a6.333 6.333 0 0 1 0 12.666h2.952a6.333 6.333 0 0 0 0-12.666z"/><path class="st1" d="M32.906 16.25h-2.952a.5.5 0 0 1 0-1c3.217 0 5.833-2.616 5.833-5.833s-2.617-5.834-5.833-5.834a.5.5 0 0 1 0-1h2.952a6.84 6.84 0 0 1 6.833 6.834c.001 3.768-3.065 6.833-6.833 6.833zm.665-12.629a6.833 6.833 0 0 1 3.217 5.796 6.832 6.832 0 0 1-3.217 5.795 5.841 5.841 0 0 0 5.169-5.795 5.841 5.841 0 0 0-5.169-5.796z"/><circle class="st8" cx="29.954" cy="54.583" r="6.333"/><path class="st16" d="M24.84 55.833a6.333 6.333 0 0 1 6.333-6.333c1.462 0 2.804.5 3.875 1.332a6.319 6.319 0 0 0-5.094-2.582 6.333 6.333 0 0 0-6.333 6.333c0 2.036.965 3.843 2.458 5.002a6.3 6.3 0 0 1-1.239-3.752z"/><path class="st1" d="M29.954 61.417a6.84 6.84 0 0 1-6.833-6.834 6.84 6.84 0 0 1 6.833-6.833 6.84 6.84 0 0 1 6.833 6.833 6.84 6.84 0 0 1-6.833 6.834zm0-12.667c-3.216 0-5.833 2.616-5.833 5.833s2.617 5.834 5.833 5.834c3.217 0 5.833-2.617 5.833-5.834s-2.616-5.833-5.833-5.833z"/><path class="st7" d="M32.906 48.25h-2.952a6.333 6.333 0 0 1 0 12.666h2.952a6.333 6.333 0 0 0 0-12.666z"/><path class="st1" d="M32.906 61.417h-2.952a.5.5 0 0 1 0-1c3.217 0 5.833-2.617 5.833-5.834s-2.617-5.833-5.833-5.833a.5.5 0 0 1 0-1h2.952a6.84 6.84 0 0 1 6.833 6.833 6.84 6.84 0 0 1-6.833 6.834zm.665-12.629a6.831 6.831 0 0 1 3.217 5.795 6.834 6.834 0 0 1-3.217 5.796 5.841 5.841 0 0 0 5.169-5.796 5.841 5.841 0 0 0-5.169-5.795z"/><path transform="rotate(-57.07 20.193 25.115)" class="st1" d="M19.692 19.732h1.001v10.764h-1.001z"/><path transform="rotate(-32.93 20.193 38.887)" class="st1" d="M14.81 38.385h10.764v1.001H14.81z"/><path transform="rotate(-25.055 20.733 36.588)" class="st1" d="M20.231 22.662h1V50.51h-1z"/><path transform="rotate(-64.937 20.732 27.415)" class="st1" d="M6.807 26.913h27.848v1H6.807z"/><path transform="rotate(-29.669 19.291 14.062)" class="st1" d="M13.923 13.562h10.738v1H13.923z"/><path transform="rotate(-60.343 19.29 49.938)" class="st1" d="M18.792 44.569h1v10.738h-1z"/><path class="st1" d="M36.288 31.5h8.932v1h-8.932z"/><path transform="rotate(-37.758 42.364 18.126)" class="st1" d="M41.861 8.099h1.001V28.15h-1.001z"/>
<path transform="rotate(-52.215 42.36 45.876)" class="st1" d="M32.336 45.375h20.051v1.001H32.336z"/></svg>